<svg id="Capa_1" enable-background="new 0 0 512 512" height="512" viewBox="0 0 512 512" width="512" xmlns="http://www.w3.org/2000/svg"><g><g><path d="m352.98 96.98c-36.343 0-70.068 12.225-97.027 32.963-15.455-11.925-32.734-20.793-51.464-26.371-3.97-1.186-8.146 1.077-9.328 5.047-1.183 3.97 1.077 8.146 5.047 9.329 15.923 4.743 30.692 12.115 44.025 21.941-15.043 14.074-27.364 31.074-36.048 50.171-14.131-10.571-31.23-16.312-49.161-16.312-45.354 0-82.252 36.898-82.252 82.252s36.898 82.252 82.252 82.252c17.931 0 35.03-5.741 49.161-16.312 8.684 19.096 21.003 36.095 36.045 50.168-24.586 18.053-54.512 27.912-85.211 27.912-79.413 0-144.019-64.607-144.019-144.02s64.606-144.02 144.02-144.02c2.786 0 5.642.083 8.488.248 4.147.239 7.682-2.919 7.92-7.055.239-4.135-2.92-7.681-7.055-7.92-3.133-.181-6.28-.273-9.354-.273-87.683 0-159.019 71.336-159.019 159.02s71.336 159.02 159.02 159.02c35.087 0 69.265-11.667 96.935-32.962 26.958 20.737 60.683 32.962 97.026 32.962 87.683 0 159.019-71.336 159.019-159.02s-71.336-159.02-159.02-159.02zm0 303.04c-73.231 0-134.742-54.772-143.079-127.405-.473-4.116-4.189-7.063-8.307-6.596-4.115.472-7.068 4.191-6.596 8.307 1.315 11.458 3.833 22.512 7.411 33.046-12.122 10.263-27.345 15.88-43.386 15.88-37.083 0-67.252-30.169-67.252-67.252s30.169-67.252 67.252-67.252c16.041 0 31.264 5.617 43.386 15.88-3.578 10.534-6.096 21.588-7.411 33.046-.473 4.115 2.48 7.834 6.596 8.307 4.117.471 7.834-2.48 8.307-6.596 8.337-72.632 69.848-127.405 143.079-127.405 79.414 0 144.02 64.607 144.02 144.02s-64.606 144.02-144.02 144.02z"/><path d="m363.341 158.131c-3.163-.336-6.186 1.365-7.552 4.232-1.367 2.868-.778 6.287 1.47 8.532 11.943 11.934 18.521 27.807 18.521 44.694 0 34.854-28.355 63.21-63.21 63.21-16.892 0-32.769-6.575-44.708-18.513-2.245-2.247-5.663-2.833-8.531-1.466-2.867 1.368-4.562 4.394-4.23 7.553 5.272 50.189 47.352 88.037 97.88 88.037 28.84 0 56.127-12.59 74.863-34.541 2.689-3.15 2.315-7.884-.835-10.574-3.15-2.689-7.885-2.314-10.573.835-15.883 18.607-39.012 29.279-63.455 29.279-36.157 0-67.211-22.863-78.695-55.576 11.56 6.505 24.655 9.965 38.285 9.965 43.125 0 78.21-35.085 78.21-78.21 0-13.628-3.462-26.721-9.97-38.278 32.716 11.48 55.579 42.529 55.579 78.69 0 8.981-1.423 17.822-4.228 26.278-1.305 3.932.825 8.176 4.757 9.48 3.926 1.303 8.176-.825 9.479-4.757 3.312-9.982 4.991-20.413 4.991-31.002.001-50.534-37.852-92.608-88.048-97.868z"/><path d="m151.524 136.801v12.453c0 4.142 3.357 7.5 7.5 7.5s7.5-3.358 7.5-7.5v-12.453c0-4.142-3.357-7.5-7.5-7.5s-7.5 3.358-7.5 7.5z"/><path d="m95.675 146.275c-3.587 2.071-4.816 6.658-2.745 10.245l6.227 10.785c1.39 2.406 3.91 3.751 6.502 3.751 1.272 0 2.562-.324 3.743-1.006 3.587-2.071 4.816-6.658 2.745-10.245l-6.227-10.785c-2.072-3.587-6.659-4.816-10.245-2.745z"/><path d="m70.329 196.132-10.784-6.227c-3.587-2.071-8.173-.843-10.245 2.745-2.071 3.587-.842 8.174 2.745 10.245l10.784 6.227c1.181.682 2.471 1.006 3.743 1.006 2.592 0 5.113-1.345 6.502-3.751 2.072-3.587.842-8.174-2.745-10.245z"/><path d="m59.778 256c0-4.142-3.357-7.5-7.5-7.5h-12.453c-4.143 0-7.5 3.358-7.5 7.5s3.357 7.5 7.5 7.5h12.453c4.143 0 7.5-3.358 7.5-7.5z"/><path d="m55.802 323.101c1.272 0 2.562-.325 3.743-1.006l10.784-6.227c3.587-2.071 4.816-6.658 2.745-10.245s-6.66-4.814-10.245-2.745l-10.784 6.227c-3.587 2.071-4.816 6.658-2.745 10.245 1.389 2.406 3.91 3.751 6.502 3.751z"/><path d="m99.418 366.731c2.592 0 5.113-1.346 6.502-3.751l6.227-10.785c2.071-3.587.842-8.174-2.745-10.245-3.589-2.072-8.175-.842-10.245 2.745l-6.227 10.785c-2.071 3.587-.842 8.174 2.745 10.245 1.181.682 2.471 1.006 3.743 1.006z"/><path d="m166.524 375.199v-12.453c0-4.142-3.357-7.5-7.5-7.5s-7.5 3.358-7.5 7.5v12.453c0 4.142 3.357 7.5 7.5 7.5s7.5-3.358 7.5-7.5z"/></g></g></svg>